<?xml version="1.0" encoding="utf-8"?>
<!-- Copyright (c) The Rensselaer Polytechnic. All rights reserved.  -->
<!DOCTYPE svg PUBLIC "-//W3C//DTD SVG 1.1//EN" "http://www.w3.org/Graphics/SVG/1.1/DTD/svg11.dtd">
<svg version="1.1" id="Layer_1" xmlns="http://www.w3.org/2000/svg" xmlns:xlink="http://www.w3.org/1999/xlink" x="0px" y="0px"
	 width="612px" height="131px" viewBox="0 0 612 131" enable-background="new 0 0 612 131" xml:space="preserve">
<path d="M322.347,66.271c0-7.981-2.141-14.228-6.377-18.775c-0.145-0.156-0.271-0.326-0.422-0.478
	c-4.535-4.582-10.857-6.877-18.966-6.877c-7.759,0-14.11,2.519-19.049,7.552c-4.942,5.036-7.408,11.463-7.408,19.286
	c0,8.141,2.396,14.648,7.19,19.521c0.256,0.262,0.521,0.514,0.787,0.76c4.703,4.369,10.888,6.555,18.556,6.555
	c5.646,0,10.565-1.229,14.755-3.68c4.098-2.398,7.543-6.031,10.352-10.871c0.064-0.113,0.135-0.219,0.201-0.334l-9.758-5.41
	c-1.857,3.465-4.031,5.977-6.527,7.531c-2.496,1.557-5.615,2.332-9.363,2.332c-3.826,0-6.951-1.102-9.393-3.283
	c-0.242-0.217-0.486-0.434-0.715-0.672c-2.535-2.637-3.943-6.316-4.227-11.026h40.363V66.271 M287.597,52.553
	c2.317-1.826,5.383-2.739,9.201-2.739c4.026,0,7.197,0.94,9.518,2.815c0.469,0.381,0.889,0.805,1.281,1.254
	c1.549,1.773,2.518,4.076,2.889,6.932h-27.754C283.658,57.131,285.278,54.378,287.597,52.553z"/>
<path d="M78.018,47.482c-0.245-0.287-0.495-0.564-0.748-0.835c-4.058-4.334-9.24-6.506-15.543-6.506
	c-4.113,0-7.645,0.871-10.605,2.601c-2.315,1.358-4.129,3.164-5.457,5.406c-0.369,0.624-0.707,1.276-0.999,1.969V41.85H33.188
	v73.396h11.478V85.219c0.323,0.457,0.659,0.889,0.999,1.309v-0.309c0.655,0.924,1.349,1.766,2.074,2.539
	c1.277,1.189,2.651,2.174,4.127,2.936c2.748,1.412,5.892,2.121,9.437,2.121c7.12,0,12.727-2.408,16.823-7.232
	c4.091-4.824,6.14-11.43,6.14-19.814C84.266,58.807,82.182,52.379,78.018,47.482 M48.202,78.967
	c-2.606-3.068-3.907-7.17-3.907-12.303c0-5.129,1.222-9.125,3.667-11.984c2.445-2.865,5.85-4.297,10.212-4.297
	c4.222,0,7.566,1.396,10.043,4.164c0.081,0.092,0.169,0.17,0.248,0.264c2.499,2.947,3.748,7.039,3.748,12.271
	c0,5.271-1.198,9.338-3.59,12.201c-2.395,2.861-5.773,4.289-10.13,4.289c-3.578,0-6.563-1.1-8.975-3.268
	C49.061,79.893,48.617,79.457,48.202,78.967z"/>
<path d="M430.726,51.922c-0.389-1.822-1.027-3.418-1.912-4.785c-0.357-0.555-0.752-1.073-1.174-1.561
	c-1.342-1.553-3.012-2.779-5.02-3.672c-2.643-1.172-5.842-1.763-9.596-1.763c-4.469,0-8.26,0.793-11.379,2.368
	c-2.682,1.356-5.057,3.403-7.133,6.126c-0.342,0.447-0.676,0.906-1,1.391v-39.85h-10.791v81.553H394.2V69.008
	c0-4.102,0.168-7.088,0.504-8.963c0.338-1.877,0.932-3.412,1.779-4.602c1.201-1.789,2.859-3.172,4.967-4.154
	c2.105-0.98,4.506-1.475,7.199-1.475c3.996,0,6.799,1.032,8.434,3.075c0.045,0.057,0.1,0.105,0.143,0.163
	c1.611,2.157,2.418,6.509,2.418,13.063v25.613h11.67V61.491C431.313,56.934,431.116,53.744,430.726,51.922"/>
<path d="M364.71,40.889c-2.191-0.496-4.604-0.748-7.219-0.748c-8.324,0-15.059,2.468-20.211,7.396
	c-5.152,4.93-7.729,11.41-7.729,19.441c0,7.93,2.488,14.385,7.461,19.365c0.172,0.172,0.352,0.336,0.527,0.502
	c4.902,4.643,11.158,6.969,18.781,6.969c2.725,0,5.303-0.303,7.73-0.898c2.422-0.604,4.697-1.502,6.822-2.703V77.125
	c-1.672,2.105-3.609,3.674-5.809,4.707c-2.201,1.037-4.707,1.551-7.51,1.551c-4.66,0-8.377-1.281-11.17-3.809
	c-0.23-0.209-0.467-0.41-0.686-0.635c-2.857-2.965-4.285-7.039-4.285-12.231c0-4.978,1.42-8.972,4.26-11.989
	c2.84-3.017,6.627-4.525,11.348-4.525c2.734,0,5.283,0.505,7.645,1.509c2.361,1.008,4.434,2.464,6.207,4.371V43.176
	C368.962,42.148,366.905,41.388,364.71,40.889"/>
<path d="M157.693,10.176 M169.171,10.176h-11.478v81.553h11.478V10.176z"/>
<path d="M218.287,41.85l-12.416,26.621l-0.267,0.635c-1.258,2.771-2.174,4.992-2.76,6.678c-0.222,0.639-0.401,1.205-0.527,1.688
	c-0.25-1.686-0.577-3.342-0.984-4.971c-0.406-1.63-0.876-3.236-1.405-4.816l-8.876-24.833l-0.357-1h-12.736l18.466,45.597
	l-13.797,27.799h11.833l35.803-72.396l0.494-1H218.287"/>
<path d="M494.604,51.922c-0.389-1.822-1.027-3.418-1.91-4.785c-0.357-0.554-0.75-1.071-1.174-1.559
	c-1.342-1.553-3.014-2.78-5.02-3.674c-2.643-1.172-5.842-1.763-9.596-1.763c-4.469,0-8.262,0.793-11.379,2.368
	c-2.68,1.355-5.059,3.402-7.135,6.124c-0.34,0.447-0.676,0.908-1,1.393V41.85h-10.791v49.878h11.479V69.008
	c0-4.102,0.166-7.088,0.504-8.963c0.336-1.877,0.932-3.412,1.781-4.602c1.201-1.789,2.855-3.172,4.963-4.154
	c2.109-0.98,4.506-1.475,7.203-1.475c3.996,0,6.799,1.032,8.434,3.075c0.045,0.057,0.1,0.105,0.143,0.163
	c1.607,2.157,2.416,6.509,2.416,13.063v25.613h11.67V61.491C495.192,56.934,494.993,53.744,494.604,51.922"/>
<path d="M145.008,56.719c-1.227-2.867-2.962-5.471-5.194-7.811c-0.28-0.295-0.565-0.586-0.861-0.871
	c-2.658-2.598-5.659-4.56-9.008-5.893c-3.348-1.335-6.919-2.003-10.709-2.003c-3.684,0-7.206,0.668-10.573,2.003
	c-3.365,1.333-6.342,3.245-8.928,5.733c-2.625,2.527-4.633,5.414-6.033,8.658c-1.398,3.244-2.098,6.691-2.098,10.338
	c0,3.65,0.691,7.086,2.073,10.314c1.38,3.227,3.401,6.137,6.058,8.732c0.082,0.08,0.168,0.154,0.251,0.234
	c2.561,2.445,5.468,4.328,8.728,5.637c3.365,1.35,6.871,2.023,10.522,2.023c3.719,0,7.264-0.674,10.628-2.023
	c3.367-1.35,6.431-3.342,9.196-5.975c2.618-2.488,4.611-5.348,5.975-8.574c1.362-3.229,2.048-6.684,2.048-10.369
	C147.083,63.332,146.39,59.945,145.008,56.719 M108.368,78.754c-3.014-3.211-4.519-7.139-4.519-11.775
	c0-4.635,1.505-8.563,4.519-11.773c3.013-3.211,6.671-4.822,10.975-4.822c4.334,0,8.003,1.611,11.001,4.822
	c0.041,0.045,0.074,0.092,0.115,0.135c2.913,3.188,4.381,7.067,4.381,11.639c0,4.637-1.512,8.564-4.524,11.775
	c-3.013,3.213-6.672,4.818-10.973,4.818c-3.903,0-7.268-1.334-10.11-3.977C108.941,79.324,108.649,79.053,108.368,78.754z"/>
<path d="M570.304,40.889c-2.193-0.496-4.604-0.748-7.223-0.748c-8.32,0-15.055,2.468-20.207,7.396
	c-5.154,4.93-7.727,11.41-7.727,19.441c0,7.93,2.486,14.385,7.461,19.365c0.174,0.174,0.352,0.336,0.529,0.504
	c4.898,4.643,11.154,6.967,18.775,6.967c2.727,0,5.305-0.303,7.73-0.898c2.424-0.604,4.699-1.502,6.822-2.703V77.125
	c-1.67,2.105-3.605,3.674-5.807,4.707c-2.203,1.037-4.709,1.551-7.51,1.551c-4.66,0-8.377-1.281-11.172-3.809
	c-0.23-0.209-0.467-0.41-0.686-0.635c-2.854-2.965-4.285-7.039-4.285-12.231c0-4.978,1.42-8.972,4.264-11.989
	c2.838-3.017,6.621-4.525,11.346-4.525c2.732,0,5.283,0.505,7.643,1.509c2.363,1.008,4.434,2.464,6.207,4.371V43.176
	C574.556,42.148,572.499,41.388,570.304,40.889"/>
<path d="M521.144,22.6c-0.154-0.188-0.318-0.37-0.496-0.545c-1.354-1.345-3.049-2.016-5.088-2.016c-1.973,0-3.668,0.699-5.092,2.093
	s-2.135,3.052-2.135,4.966c0,1.957,0.711,3.638,2.135,5.049c0.16,0.158,0.322,0.303,0.488,0.443
	c1.318,1.113,2.852,1.674,4.604,1.674c2.004,0,3.691-0.688,5.064-2.067c1.369-1.374,2.057-3.074,2.057-5.099
	C522.681,25.341,522.167,23.842,521.144,22.6"/>
<path d="M509.864,41.85 M521.343,41.85h-11.479v49.878h11.479V41.85z"/>
<polygon points="256.362,8.315 244.68,22.884 244.68,41.85 235.879,41.85 235.879,42.85 235.879,44.627 235.879,51.902 
	244.68,51.902 244.68,52.902 244.68,91.729 245.68,91.729 256.158,91.729 256.158,51.902 264.957,51.902 264.957,41.85 
	256.37,41.85 "/>
<path fill="#EF3750" d="M321.18,65.271c0-7.981-2.141-14.228-6.377-18.775c-0.145-0.156-0.271-0.326-0.422-0.478
	c-4.535-4.582-10.858-6.877-18.966-6.877c-7.759,0-14.11,2.519-19.049,7.552c-4.942,5.036-7.408,11.463-7.408,19.286
	c0,8.141,2.396,14.648,7.191,19.521c0.256,0.262,0.52,0.514,0.787,0.76c4.703,4.369,10.887,6.555,18.555,6.555
	c5.646,0,10.566-1.229,14.755-3.68c4.098-2.398,7.543-6.031,10.352-10.871c0.064-0.113,0.135-0.219,0.201-0.334l-9.758-5.41
	c-1.857,3.465-4.031,5.977-6.527,7.531c-2.496,1.557-5.616,2.332-9.363,2.332c-3.827,0-6.952-1.102-9.393-3.283
	c-0.242-0.217-0.486-0.434-0.715-0.672c-2.535-2.637-3.943-6.316-4.227-11.026h40.364V65.271 M286.43,51.553
	c2.317-1.826,5.383-2.739,9.201-2.739c4.026,0,7.197,0.94,9.517,2.815c0.469,0.381,0.889,0.805,1.282,1.254
	c1.548,1.773,2.517,4.076,2.888,6.931h-27.754C282.491,56.131,284.111,53.378,286.43,51.553z"/>
<polyline fill="#ADB0B2" points="305.388,24.131 305.28,24.163 305.28,24.983 305.388,24.95 "/>
<line fill="none" stroke="#000000" stroke-width="0.412" x1="130.759" y1="24.543" x2="152.417" y2="24.543"/>
<polyline points="36.679,23.402 36.679,29.058 34.554,29.058 34.554,23.402 33.828,23.402 33.828,21.605 34.554,21.605 
	34.554,19.086 36.679,19.086 36.679,21.605 37.982,21.605 37.982,23.402 36.679,23.402 "/>
<path d="M38.755,16.191h2.125v6.042h0.03c0.213-0.292,0.487-0.509,0.826-0.65c0.338-0.142,0.709-0.212,1.114-0.212
	c0.943,0,1.61,0.281,2,0.844s0.585,1.328,0.585,2.296v4.547H43.31v-3.935c0-0.681-0.068-1.192-0.204-1.535
	c-0.136-0.343-0.453-0.514-0.952-0.514c-0.38,0-0.665,0.119-0.855,0.359c-0.19,0.239-0.307,0.514-0.352,0.824
	c-0.044,0.311-0.067,0.683-0.067,1.117v3.684h-2.125V16.191"/>
<path d="M53.851,25.675h-4.895c0,0.547,0.117,1.016,0.352,1.41s0.606,0.59,1.114,0.59c0.622,0,1.099-0.339,1.43-1.018l1.955,0.317
	c-0.247,0.731-0.673,1.301-1.277,1.712c-0.605,0.409-1.307,0.614-2.107,0.614c-0.563,0-1.076-0.096-1.54-0.288
	c-0.464-0.193-0.855-0.463-1.174-0.811c-0.318-0.348-0.563-0.761-0.736-1.237c-0.173-0.476-0.259-0.998-0.259-1.566
	c0-0.76,0.137-1.447,0.41-2.062c0.275-0.614,0.681-1.095,1.219-1.443c0.538-0.348,1.197-0.522,1.977-0.522
	c1.159,0,2.038,0.376,2.636,1.129c0.597,0.754,0.895,1.726,0.895,2.916V25.675 M49.015,24.355h2.836
	c-0.055-0.412-0.206-0.763-0.456-1.055c-0.249-0.291-0.566-0.437-0.951-0.437c-0.4,0-0.724,0.144-0.973,0.433
	C49.221,23.586,49.07,23.938,49.015,24.355z"/>
<path d="M61.941,21.605v0.781h0.03c0.444-0.677,1.061-1.015,1.85-1.015c0.277,0,0.571,0.057,0.882,0.171l-0.26,1.978
	c-0.257-0.178-0.55-0.267-0.881-0.267c-0.459,0-0.807,0.118-1.043,0.352c-0.237,0.235-0.393,0.525-0.467,0.87
	c-0.074,0.345-0.111,0.755-0.111,1.229v3.354h-2.125v-7.453H61.941"/>
<path d="M72.29,25.675h-4.896c0,0.547,0.117,1.016,0.352,1.41c0.234,0.394,0.606,0.59,1.114,0.59c0.622,0,1.099-0.339,1.43-1.018
	l1.955,0.317c-0.247,0.731-0.673,1.301-1.277,1.712c-0.605,0.409-1.307,0.614-2.107,0.614c-0.563,0-1.076-0.096-1.54-0.288
	c-0.464-0.193-0.855-0.463-1.173-0.811c-0.318-0.348-0.565-0.761-0.737-1.237c-0.173-0.476-0.259-0.998-0.259-1.566
	c0-0.76,0.137-1.447,0.411-2.062c0.273-0.614,0.68-1.095,1.218-1.443c0.538-0.348,1.196-0.522,1.976-0.522
	c1.16,0,2.039,0.376,2.637,1.129c0.597,0.754,0.896,1.726,0.896,2.916V25.675 M67.454,24.355h2.835
	c-0.054-0.412-0.206-0.763-0.456-1.055c-0.249-0.291-0.566-0.437-0.951-0.437c-0.4,0-0.724,0.144-0.973,0.433
	C67.66,23.586,67.507,23.938,67.454,24.355z"/>
<path d="M75.705,21.605V22.3h0.029c0.405-0.619,1.052-0.929,1.94-0.929c0.944,0,1.61,0.281,2,0.844
	c0.39,0.563,0.585,1.328,0.585,2.296v4.547h-2.125v-3.935c0-0.681-0.068-1.192-0.203-1.535c-0.137-0.343-0.454-0.514-0.952-0.514
	c-0.381,0-0.666,0.119-0.856,0.359c-0.19,0.239-0.307,0.514-0.352,0.824c-0.044,0.311-0.066,0.683-0.066,1.117v3.684H73.58v-7.453
	H75.705"/>
<path d="M86.797,22.146l-0.914,1.235c-0.356-0.345-0.731-0.518-1.122-0.518c-0.184,0-0.346,0.063-0.488,0.188
	c-0.141,0.126-0.212,0.274-0.212,0.447c0,0.167,0.067,0.305,0.201,0.413c0.134,0.108,0.322,0.211,0.566,0.31
	c0.243,0.098,0.501,0.201,0.773,0.31c0.471,0.197,0.844,0.453,1.118,0.769c0.276,0.315,0.413,0.769,0.413,1.36
	c0,0.404-0.076,0.771-0.226,1.099c-0.151,0.327-0.364,0.607-0.638,0.839s-0.582,0.406-0.923,0.525
	c-0.341,0.118-0.712,0.177-1.112,0.177c-0.489,0-0.969-0.11-1.439-0.33c-0.469-0.22-0.865-0.526-1.186-0.917l0.969-1.26
	c0.518,0.578,1.045,0.867,1.578,0.867c0.242,0,0.444-0.075,0.607-0.225c0.163-0.15,0.245-0.344,0.245-0.58
	c0-0.157-0.039-0.289-0.115-0.395c-0.077-0.106-0.187-0.199-0.331-0.28c-0.143-0.081-0.291-0.151-0.445-0.21
	c-0.154-0.059-0.354-0.138-0.601-0.237c-0.468-0.207-0.832-0.45-1.093-0.729c-0.261-0.279-0.392-0.688-0.392-1.226
	c0-0.464,0.1-0.878,0.301-1.241c0.2-0.363,0.48-0.648,0.841-0.855c0.361-0.207,0.771-0.311,1.231-0.311
	c0.425,0,0.858,0.066,1.301,0.197C86.146,21.7,86.511,21.893,86.797,22.146"/>
<path d="M93.309,22.146l-0.914,1.235c-0.357-0.345-0.731-0.518-1.123-0.518c-0.184,0-0.346,0.063-0.487,0.188
	c-0.142,0.126-0.212,0.274-0.212,0.447c0,0.167,0.067,0.305,0.2,0.413c0.134,0.108,0.323,0.211,0.566,0.31
	c0.242,0.098,0.501,0.201,0.773,0.31c0.471,0.197,0.844,0.453,1.119,0.769c0.274,0.315,0.412,0.769,0.412,1.36
	c0,0.404-0.075,0.771-0.226,1.099c-0.151,0.327-0.363,0.607-0.638,0.839c-0.274,0.232-0.582,0.406-0.923,0.525
	c-0.341,0.118-0.712,0.177-1.112,0.177c-0.49,0-0.969-0.11-1.438-0.33c-0.47-0.22-0.866-0.526-1.187-0.917l0.969-1.26
	c0.519,0.578,1.045,0.867,1.578,0.867c0.242,0,0.445-0.075,0.607-0.225c0.163-0.15,0.245-0.344,0.245-0.58
	c0-0.157-0.039-0.289-0.115-0.395c-0.077-0.106-0.187-0.199-0.33-0.28c-0.144-0.081-0.292-0.151-0.446-0.21
	c-0.153-0.059-0.354-0.138-0.601-0.237c-0.468-0.207-0.832-0.45-1.093-0.729c-0.261-0.279-0.392-0.688-0.392-1.226
	c0-0.464,0.101-0.878,0.301-1.241c0.2-0.363,0.48-0.648,0.841-0.855c0.361-0.207,0.771-0.311,1.231-0.311
	c0.425,0,0.859,0.066,1.301,0.197C92.658,21.7,93.022,21.893,93.309,22.146"/>
<path d="M101.698,25.675h-4.895c0,0.547,0.117,1.016,0.352,1.41c0.234,0.394,0.605,0.59,1.114,0.59c0.622,0,1.099-0.339,1.429-1.018
	l1.956,0.317c-0.247,0.731-0.673,1.301-1.278,1.712c-0.605,0.409-1.307,0.614-2.106,0.614c-0.563,0-1.076-0.096-1.54-0.288
	c-0.464-0.193-0.856-0.463-1.174-0.811c-0.318-0.348-0.563-0.761-0.736-1.237c-0.173-0.476-0.26-0.998-0.26-1.566
	c0-0.76,0.138-1.447,0.411-2.062c0.275-0.614,0.68-1.095,1.218-1.443s1.197-0.522,1.977-0.522c1.16,0,2.039,0.376,2.636,1.129
	c0.597,0.754,0.896,1.726,0.896,2.916V25.675 M96.862,24.355h2.836c-0.055-0.412-0.206-0.763-0.456-1.055
	c-0.249-0.291-0.566-0.437-0.951-0.437c-0.4,0-0.724,0.144-0.974,0.433C97.068,23.586,96.916,23.938,96.862,24.355z"/>
<line fill="none" stroke="#000000" stroke-width="2.125" x1="104.051" y1="29.058" x2="104.051" y2="16.191"/>
<path d="M113.954,21.605v7.453h-2.094v-0.684h-0.03c-0.212,0.286-0.502,0.513-0.871,0.678c-0.368,0.165-0.75,0.248-1.145,0.248
	c-0.691,0-1.299-0.189-1.822-0.566c-0.524-0.378-0.923-0.876-1.198-1.496c-0.273-0.619-0.411-1.267-0.411-1.943
	c0-0.657,0.138-1.289,0.411-1.896c0.275-0.607,0.67-1.097,1.186-1.469c0.517-0.373,1.116-0.559,1.797-0.559
	c0.395,0,0.777,0.081,1.145,0.244c0.369,0.163,0.681,0.396,0.938,0.697v-0.707H113.954 M110.296,27.417
	c0.35,0,0.662-0.102,0.933-0.307c0.272-0.204,0.481-0.468,0.627-0.791c0.145-0.323,0.219-0.654,0.219-0.995
	c0-0.34-0.075-0.67-0.223-0.991c-0.148-0.32-0.358-0.58-0.63-0.78c-0.271-0.199-0.58-0.3-0.926-0.3c-0.341,0-0.646,0.101-0.916,0.3
	c-0.269,0.2-0.476,0.46-0.622,0.78c-0.146,0.321-0.218,0.651-0.218,0.991c0,0.341,0.072,0.672,0.218,0.995
	c0.146,0.323,0.352,0.587,0.619,0.791C109.644,27.315,109.95,27.417,110.296,27.417z"/>
<path d="M122.404,25.675h-4.896c0,0.547,0.117,1.016,0.352,1.41c0.235,0.394,0.606,0.59,1.115,0.59c0.622,0,1.098-0.339,1.429-1.018
	l1.955,0.317c-0.247,0.731-0.672,1.301-1.277,1.712c-0.605,0.409-1.307,0.614-2.106,0.614c-0.563,0-1.077-0.096-1.54-0.288
	c-0.465-0.193-0.855-0.463-1.174-0.811c-0.318-0.348-0.564-0.761-0.737-1.237c-0.172-0.476-0.259-0.998-0.259-1.566
	c0-0.76,0.137-1.447,0.411-2.062c0.274-0.614,0.68-1.095,1.218-1.443s1.197-0.522,1.977-0.522c1.16,0,2.039,0.376,2.636,1.129
	c0.597,0.754,0.896,1.726,0.896,2.916V25.675 M117.568,24.355h2.835c-0.054-0.412-0.206-0.763-0.455-1.055
	c-0.249-0.291-0.567-0.437-0.951-0.437c-0.4,0-0.725,0.144-0.974,0.433C117.774,23.586,117.622,23.938,117.568,24.355z"/>
<path d="M125.819,21.605v0.781h0.03c0.443-0.677,1.061-1.015,1.85-1.015c0.277,0,0.571,0.057,0.882,0.171l-0.26,1.978
	c-0.257-0.178-0.55-0.267-0.881-0.267c-0.459,0-0.807,0.118-1.044,0.352c-0.236,0.235-0.392,0.525-0.466,0.87
	c-0.074,0.345-0.111,0.755-0.111,1.229v3.354h-2.125v-7.453H125.819"/>
<path fill="#EF3750" d="M44.498,85.527c0.659,0.813,1.351,1.555,2.074,2.23c-0.725-0.773-1.419-1.615-2.074-2.539V85.527"/>
<path fill="#EF3750" d="M76.851,46.482c-0.245-0.287-0.495-0.564-0.748-0.835c-4.058-4.334-9.24-6.506-15.543-6.506
	c-4.113,0-7.645,0.871-10.605,2.601c-2.315,1.358-4.129,3.164-5.457,5.406c-0.369,0.624-0.707,1.276-0.999,1.969V40.85H32.021
	v73.396h11.478V84.219c0.323,0.457,0.659,0.889,0.999,1.309v-0.309c0.655,0.924,1.349,1.766,2.074,2.539
	c1.277,1.189,2.651,2.174,4.127,2.936c2.748,1.412,5.892,2.121,9.437,2.121c7.12,0,12.727-2.408,16.823-7.232
	c4.091-4.824,6.14-11.43,6.14-19.814C83.099,57.807,81.015,51.379,76.851,46.482 M47.035,77.967
	c-2.606-3.068-3.907-7.17-3.907-12.303c0-5.129,1.222-9.125,3.667-11.985c2.445-2.864,5.85-4.296,10.212-4.296
	c4.222,0,7.566,1.396,10.043,4.164c0.081,0.091,0.169,0.17,0.248,0.264c2.499,2.947,3.748,7.039,3.748,12.271
	c0,5.271-1.198,9.338-3.59,12.201c-2.395,2.861-5.773,4.289-10.13,4.289c-3.578,0-6.563-1.1-8.975-3.268
	C47.894,78.893,47.45,78.457,47.035,77.967z"/>
<path fill="#EF3750" d="M429.559,50.922c-0.389-1.822-1.027-3.418-1.912-4.785c-0.357-0.555-0.752-1.073-1.174-1.561
	c-1.342-1.553-3.012-2.779-5.02-3.672c-2.643-1.172-5.842-1.763-9.596-1.763c-4.469,0-8.26,0.793-11.379,2.368
	c-2.682,1.356-5.057,3.403-7.133,6.126c-0.342,0.447-0.676,0.906-1,1.39V9.176h-10.791v81.553h11.479V68.008
	c0-4.102,0.168-7.088,0.504-8.963c0.338-1.877,0.932-3.412,1.779-4.602c1.201-1.789,2.859-3.172,4.967-4.154
	c2.105-0.981,4.506-1.475,7.199-1.475c3.996,0,6.799,1.032,8.434,3.075c0.045,0.056,0.1,0.105,0.143,0.163
	c1.611,2.157,2.418,6.509,2.418,13.063v25.613h11.67V60.491C430.146,55.934,429.949,52.744,429.559,50.922"/>
<path fill="#EF3750" d="M363.543,39.889c-2.191-0.496-4.604-0.748-7.219-0.748c-8.324,0-15.059,2.468-20.211,7.396
	c-5.152,4.93-7.729,11.41-7.729,19.441c0,7.93,2.488,14.385,7.461,19.365c0.172,0.172,0.352,0.336,0.527,0.502
	c4.902,4.643,11.158,6.969,18.781,6.969c2.725,0,5.303-0.303,7.73-0.898c2.422-0.604,4.697-1.502,6.822-2.703V76.125
	c-1.672,2.105-3.609,3.674-5.809,4.707c-2.201,1.037-4.707,1.551-7.51,1.551c-4.66,0-8.377-1.281-11.17-3.809
	c-0.23-0.209-0.467-0.41-0.686-0.635c-2.857-2.965-4.285-7.039-4.285-12.231c0-4.978,1.42-8.972,4.26-11.989
	c2.84-3.017,6.627-4.525,11.348-4.525c2.734,0,5.283,0.504,7.645,1.508c2.361,1.008,4.434,2.464,6.207,4.371V42.176
	C367.795,41.148,365.738,40.388,363.543,39.889"/>
<path fill="#EF3750" d="M156.526,9.176 M168.004,9.176h-11.478v81.553h11.478V9.176z"/>
<path fill="#EF3750" d="M217.12,40.85l-12.416,26.621l-0.267,0.635c-1.258,2.771-2.174,4.992-2.76,6.678
	c-0.222,0.639-0.401,1.205-0.527,1.688c-0.25-1.686-0.577-3.342-0.984-4.971c-0.406-1.63-0.876-3.236-1.405-4.816l-8.876-24.833
	l-0.357-1h-12.736l18.466,45.597l-13.797,27.799h11.833l35.803-72.396l0.494-1H217.12"/>
<path fill="#EF3750" d="M493.438,50.922c-0.389-1.822-1.027-3.418-1.91-4.785c-0.357-0.554-0.75-1.071-1.174-1.559
	c-1.342-1.553-3.014-2.78-5.02-3.674c-2.643-1.172-5.842-1.763-9.596-1.763c-4.469,0-8.262,0.793-11.379,2.368
	c-2.68,1.355-5.059,3.402-7.135,6.124c-0.34,0.447-0.676,0.908-1,1.392V40.85h-10.791v49.878h11.479V68.008
	c0-4.102,0.166-7.088,0.504-8.963c0.336-1.877,0.932-3.412,1.781-4.602c1.201-1.789,2.855-3.172,4.963-4.154
	c2.109-0.981,4.506-1.475,7.203-1.475c3.996,0,6.799,1.032,8.434,3.075c0.045,0.056,0.1,0.105,0.143,0.163
	c1.607,2.157,2.416,6.509,2.416,13.063v25.613h11.67V60.491C494.025,55.934,493.826,52.744,493.438,50.922"/>
<path fill="#EF3750" d="M143.841,55.719c-1.227-2.867-2.962-5.471-5.194-7.811c-0.28-0.295-0.565-0.586-0.861-0.871
	c-2.658-2.598-5.659-4.56-9.008-5.893c-3.348-1.335-6.919-2.003-10.709-2.003c-3.684,0-7.206,0.668-10.573,2.003
	c-3.365,1.333-6.342,3.245-8.928,5.733c-2.625,2.527-4.633,5.414-6.033,8.658c-1.398,3.244-2.098,6.691-2.098,10.338
	c0,3.65,0.691,7.086,2.073,10.314c1.38,3.227,3.401,6.137,6.058,8.732c0.082,0.08,0.168,0.154,0.251,0.234
	c2.561,2.445,5.468,4.328,8.728,5.637c3.365,1.35,6.871,2.023,10.522,2.023c3.719,0,7.264-0.674,10.628-2.023
	c3.367-1.35,6.431-3.342,9.196-5.975c2.618-2.488,4.611-5.348,5.975-8.574c1.362-3.229,2.048-6.684,2.048-10.369
	C145.916,62.332,145.223,58.945,143.841,55.719 M107.201,77.754c-3.014-3.211-4.519-7.139-4.519-11.775
	c0-4.635,1.505-8.563,4.519-11.773c3.013-3.211,6.671-4.822,10.975-4.822c4.334,0,8.003,1.611,11.001,4.822
	c0.041,0.045,0.074,0.092,0.115,0.135c2.913,3.187,4.381,7.067,4.381,11.639c0,4.637-1.512,8.564-4.524,11.775
	c-3.013,3.213-6.672,4.818-10.973,4.818c-3.903,0-7.268-1.334-10.11-3.977C107.774,78.324,107.482,78.053,107.201,77.754z"/>
<path fill="#EF3750" d="M569.137,39.889c-2.193-0.496-4.604-0.748-7.223-0.748c-8.32,0-15.055,2.468-20.207,7.396
	c-5.154,4.93-7.727,11.41-7.727,19.441c0,7.93,2.486,14.385,7.461,19.365c0.174,0.174,0.352,0.336,0.529,0.504
	c4.898,4.643,11.154,6.967,18.775,6.967c2.727,0,5.305-0.303,7.73-0.898c2.424-0.604,4.699-1.502,6.822-2.703V76.125
	c-1.67,2.105-3.605,3.674-5.807,4.707c-2.203,1.037-4.709,1.551-7.51,1.551c-4.66,0-8.377-1.281-11.172-3.809
	c-0.23-0.209-0.467-0.41-0.686-0.635c-2.854-2.965-4.285-7.039-4.285-12.231c0-4.978,1.42-8.972,4.264-11.989
	c2.838-3.017,6.621-4.525,11.346-4.525c2.732,0,5.283,0.504,7.643,1.508c2.363,1.008,4.434,2.464,6.207,4.371V42.176
	C573.389,41.148,571.332,40.388,569.137,39.889"/>
<path fill="#EF3750" d="M519.977,21.6c-0.154-0.188-0.318-0.37-0.496-0.545c-1.354-1.345-3.049-2.016-5.088-2.016
	c-1.973,0-3.668,0.699-5.092,2.093s-2.135,3.052-2.135,4.966c0,1.957,0.711,3.638,2.135,5.049c0.16,0.158,0.322,0.303,0.488,0.443
	c1.318,1.113,2.852,1.674,4.604,1.674c2.004,0,3.691-0.688,5.064-2.067c1.369-1.374,2.057-3.074,2.057-5.099
	C521.514,24.341,521,22.842,519.977,21.6"/>
<path fill="#EF3750" d="M508.697,40.85 M520.176,40.85h-11.479v49.878h11.479V40.85z"/>
<polygon fill="#EF3750" points="255.195,7.315 243.513,21.884 243.513,40.85 234.712,40.85 234.712,41.85 234.712,43.627 
	234.712,50.902 243.513,50.902 243.513,51.902 243.513,90.729 244.513,90.729 254.991,90.729 254.991,50.902 263.79,50.902 
	263.79,40.85 255.203,40.85 "/>
<path fill="none" stroke="#000000" stroke-width="0.412" d="M206.25,103.377h369.966 M48.185,103.486h133.854 M527.083,24.543
	h49.109 M397.75,24.543h104.315 M261.5,24.543h114.792 M173.25,24.543h65.375"/>
</svg>
